<svg xmlns="http://www.w3.org/2000/svg" xmlns:xlink="http://www.w3.org/1999/xlink" version="1.1" x="0px" y="0px" viewBox="0 0 100 100" enable-background="new 0 0 100 100" xml:space="preserve" height="100px" width="100px">
<g id="Layer_1">
</g>
<g id="Layer_2">
	<path d="M37.1,25.8L37.1,25.8c0.3,0,0.6,0,0.9,0c6.8,0.4,12.4,6.1,12.6,13c0.1,3.6-1.1,7-3.5,9.7c-3,3.3-4.9,7.3-5.7,11.7h-8.7   C32,55.8,30,51.7,27,48.4c-2.2-2.5-3.5-5.7-3.5-9.1C23.5,31.9,29.6,25.8,37.1,25.8L37.1,25.8z M37.1,20.8   c-10.2,0-18.5,8.3-18.5,18.5c0,4.8,1.8,9.1,4.8,12.4c3.1,3.5,4.8,8,4.8,12.7v0.1c0,0.4,0.3,0.6,0.6,0.6h16.6c0.4,0,0.6-0.3,0.6-0.6   v-0.1c0-4.6,1.6-9.2,4.8-12.6c3.2-3.5,5-8.1,4.8-13.2c-0.4-9.4-7.9-17.2-17.3-17.7C37.9,20.8,37.5,20.8,37.1,20.8L37.1,20.8z"/>
	<path d="M43.8,85.3c-0.6,0-1.3-0.2-1.8-0.7L28.6,71.1c-1-1-1-2.6,0-3.5c1-1,2.6-1,3.5,0L45.6,81c1,1,1,2.6,0,3.5   C45.1,85.1,44.5,85.3,43.8,85.3z"/>
	<path d="M43.8,75.5c-0.6,0-1.3-0.2-1.8-0.7l-3.6-3.6c-1-1-1-2.6,0-3.5c1-1,2.6-1,3.5,0l3.6,3.6c1,1,1,2.6,0,3.5   C45.1,75.2,44.5,75.5,43.8,75.5z"/>
	<path d="M33.8,85.5c-0.6,0-1.3-0.2-1.8-0.7l-3.6-3.6c-1-1-1-2.6,0-3.5c1-1,2.6-1,3.5,0l3.6,3.6c1,1,1,2.6,0,3.5   C35.1,85.2,34.5,85.5,33.8,85.5z"/>
	<path d="M83,29.3c0.1-1.1-0.3-2.1-1.1-2.9L66.9,12.2c-0.6-0.6-1.5-0.9-2.3-0.9h0v0h-30v6.4h5v-1.4h21.6v16H78V73H50v5H83L83,29.3   L83,29.3z M66.2,27.3v-8.9l9.5,8.9H66.2z"/>
	<rect x="57.4" y="54.3" width="6.9" height="5"/>
	<rect x="56" y="62.6" width="14" height="5"/>
	<rect x="14.3" y="18.3" transform="matrix(0.7077 0.7066 -0.7066 0.7077 20.1543 -7.1604)" width="8.9" height="5"/>
	<rect x="6.7" y="36.6" width="8.9" height="5"/>
	<rect x="23.4" y="12.3" transform="matrix(0.3533 0.9355 -0.9355 0.3533 31.9371 -16.5023)" width="8.9" height="5"/>
	<rect x="8.7" y="26.6" transform="matrix(0.9227 0.3855 -0.3855 0.9227 12.2365 -2.814)" width="8.9" height="5"/>
	<rect x="6.7" y="36.6" width="8.9" height="5"/>
</g>
</svg>